<svg id="Capa_1" enable-background="new 0 0 512.002 512.002" height="512" viewBox="0 0 512.002 512.002" width="512" xmlns="http://www.w3.org/2000/svg"><g><path d="m255.325 437.91c4.142 0 7.5-3.357 7.5-7.5v-8.828c16.964-3.305 26.872-17.282 29.067-30.338 2.818-16.768-5.953-31.346-22.346-37.141-2.209-.781-4.469-1.6-6.722-2.453v-36.34c8.32 1.092 14.265 4.651 14.442 4.759 3.498 2.183 8.111 1.134 10.314-2.36 2.211-3.504 1.162-8.135-2.341-10.345-.539-.34-9.639-5.961-22.416-7.157v-7.039c0-4.143-3.357-7.5-7.5-7.5s-7.5 3.357-7.5 7.5v7.928c-1.146.252-2.301.542-3.467.893-10.793 3.252-18.858 12.489-21.048 24.108-1.996 10.592 1.396 20.805 8.853 26.652 3.963 3.109 8.898 5.956 15.663 8.965v45.438c-5.882-.425-9.943-1.85-16.607-6.21-3.467-2.268-8.116-1.296-10.382 2.171-2.268 3.466-1.296 8.114 2.17 10.382 9.674 6.328 16.278 8.205 24.819 8.68v8.234c.001 4.144 3.358 7.501 7.501 7.501zm-13.906-96.962c-3.033-2.379-4.324-7.005-3.369-12.072.859-4.558 3.88-10.038 9.774-12.223v28.381c-2.412-1.304-4.594-2.665-6.405-4.086zm23.127 27.298c14.015 4.954 13.151 16.952 12.553 20.511-1.17 6.963-6.031 14.345-14.274 17.257v-38.384c.571.205 1.131.408 1.721.616z"/><path d="m455.647 473.838c-.831-10.341-6.134-19.753-14.546-25.821l-5.889-4.249c-1.652-1.192-2.488-3.271-2.128-5.295 8.561-48.105 7.193-88.069-4.301-125.769-10.649-34.926-30.239-68.954-61.212-106.126h2.544c14.753 0 26.755-12.002 26.755-26.756 0-10.545-6.134-19.682-15.019-24.038 9.547-12.459 20.549-24.931 32.859-37.185 1.41-1.403 2.204-3.309 2.209-5.298s-.781-3.899-2.185-5.309l-14.511-14.576c-2.924-2.937-7.673-2.946-10.606-.024-2.936 2.922-2.946 7.671-.024 10.607l9.265 9.306c-12.722 13.109-24.015 26.448-33.703 39.762h-63.647c9.426-17.099 27.549-44.87 59.566-77.715l7.362 7.396c2.923 2.936 7.672 2.945 10.606.023 2.936-2.922 2.946-7.671.024-10.606l-1.672-1.68 14.118-33.297c1.616-3.813-.164-8.216-3.978-9.833l-63.105-26.758c-3.812-1.617-8.216.164-9.833 3.977l-27.117 63.953h-40.107v-27.757c0-4.142-3.358-7.5-7.5-7.5h-19.279c-4.142 0-7.5 3.358-7.5 7.5s3.358 7.5 7.5 7.5h11.779v20.256h-10.644c-4.142 0-7.5 3.358-7.5 7.5v57.972c-9.263-8.808-21.172-19.272-35.402-30.021v-55.707h11.779c4.142 0 7.5-3.358 7.5-7.5s-3.358-7.5-7.5-7.5h-19.279c-4.142 0-7.5 3.358-7.5 7.5v52.41c-8.281-5.672-17.164-11.294-26.621-16.662-3.603-2.044-8.179-.783-10.225 2.82l-33.84 59.61c-.982 1.73-1.236 3.779-.708 5.696s1.797 3.547 3.527 4.529c8.054 4.573 16.112 9.705 24.038 15.292-3.061 4.35-4.866 9.646-4.866 15.358 0 14.753 12.002 26.755 26.755 26.755h2.544c-30.973 37.173-50.564 71.201-61.212 106.126-11.495 37.699-12.861 77.663-4.301 125.769.36 2.024-.475 4.103-2.128 5.296l-5.887 4.247c-8.413 6.069-13.716 15.48-14.547 25.821s2.899 20.479 10.235 27.816c15.435 15.433 40.942 13.286 53.637-4.313l10.411-14.432c1.172-1.625 3.271-2.306 5.221-1.703 50.12 15.572 126.845 19.878 190.918 10.714 4.101-.587 6.949-4.387 6.363-8.486-.587-4.102-4.396-6.944-8.486-6.363-62.073 8.88-136.156 4.783-184.345-10.188-8.113-2.521-16.888.395-21.836 7.252l-10.411 14.432c-7.344 10.181-22.034 11.311-30.865 2.482-4.221-4.222-6.368-10.057-5.89-16.008.479-5.95 3.53-11.365 8.372-14.858l5.887-4.247c6.296-4.543 9.484-12.428 8.12-20.09-8.129-45.682-6.896-83.42 3.881-118.765 10.945-35.897 32.141-71.081 66.587-110.501h61.66c-1.554 10.464-7.348 29.439-28.806 37.339-39.364 14.494-44.061 42.246-44.241 43.42-.63 4.094 2.171 7.969 6.265 8.599.392.061.78.09 1.164.09 3.631 0 6.812-2.614 7.382-6.317.149-.829 4.004-20.444 34.613-31.715 25.006-9.207 35.118-30.535 38.143-46.775 9.685 6.215 23.277 17.6 23.055 32.447-.062 4.142 3.245 7.549 7.387 7.611 4.1.059 7.55-3.245 7.611-7.387.241-16.084-9.271-28.616-19.255-37.312h88.718c34.447 39.421 55.643 74.604 66.588 110.501 10.776 35.345 12.01 73.083 3.881 118.765-1.363 7.662 1.823 15.547 8.119 20.089l5.889 4.249c4.841 3.492 7.893 8.907 8.371 14.858.479 5.95-1.669 11.785-5.891 16.006-8.86 8.86-23.543 7.667-30.864-2.482l-10.412-14.431c-4.946-6.858-13.724-9.773-21.837-7.252-5.526 1.718-11.531 3.331-17.85 4.797-4.035.936-6.548 4.965-5.611 9 .935 4.035 4.965 6.552 9 5.611 6.674-1.547 13.037-3.258 18.911-5.084 1.95-.605 4.05.079 5.223 1.704l10.411 14.431c12.718 17.629 38.231 19.717 53.637 4.313 7.334-7.336 11.064-17.475 10.232-27.816zm-130.169-456.504 49.297 20.902-8.818 20.798c-2.942-2.545-7.39-2.432-10.189.355-27.696 27.571-46.144 52.158-57.994 70.68v-47.396zm-42.704 66.193v69.54h-49.903c-1.03-1.147-2.243-2.475-3.643-3.974v-65.566zm-146.492 9.809c35.002 20.882 61.264 44.802 75.975 59.73h-70.37c-3.375 0-6.603.634-9.579 1.78-7.39-5.363-14.909-10.378-22.468-14.931zm-6.151 86.486c0-6.482 5.273-11.755 11.755-11.755h228.229c6.481 0 11.755 5.273 11.755 11.756 0 6.482-5.273 11.755-11.755 11.755h-228.228c-6.482 0-11.756-5.274-11.756-11.756z"/></g></svg>